      <svg width="284" height="56" viewBox="0 0 284 56" fill="none" xmlns="http://www.w3.org/2000/svg" xmlns:xlink="http://www.w3.org/1999/xlink">
    <defs>
    <title>Germán Horianski</title>
    <g id="name-masks">
      <mask id="name-mask-G">
        <g id="mask-G">
          <path class="mask" id="mask-G-main-1" d="M5 15L1 13.5V12.5L2 11L3 9.5L7.5 7H14.5L16.5 7.5" stroke="black" stroke-width="3"/>

        <path class="mask" id="mask-G-main-2" d="M15 7L17.5 7.5L20.5 8L23 8.5L25 9" stroke="black" stroke-width="1.8"/>
<path d="M54 26.5L55.5 22L52.5 20L49.5 22L46.5 26L45 28L45.5 29V29.5L45 30L44.5 31L44 35L45.5 37L49 36L53 33L56 28.5L52.5 26.5L46 27.5" stroke="black" stroke-width="3"/>
          <path class="mask" id="mask-G-main-3" d="M24.5 8.5L36 13L37 13.5V16L38.5 13L38 10.5V9.5L36 6L32.5 5L26.5 4.5L23 6L13 13L9.5 18L8 21L6.5 25.5V27.5V30V31.5L7 33.5L8.5 35.5L11 37.5L15.5 38.5L24 39L33 34.5L34.5 31V37.5L31.5 45.5L28 48.5L25 50.5L21.5 50L20.5 47L19.5 51L28 53L31.5 48L36 39L37 31L36 30L35 29H38.5V27L39 24.5L41 22.5L43 21L34.5 24L23.5 23.5L14 27.5" stroke="black" stroke-width="4"/>
        </g>
      </mask>
      <mask id="name-mask-e">
        <path class="mask" id="mask-e" d="M54 27.5L55.5 23L52.5 21L49.5 23L46.5 27L45 29L45.5 30V30.5L45 31L44.5 32L44 36L45.5 38L49 37L53 34L56 29.5L52.5 27.5L46 28.5" stroke="black" stroke-width="3"/>
  
      </mask>
      <mask id="name-mask-r">
        <path class="mask" id="mask-r" d="M66 19.5L62 22L60.5 23.5L59.5 28L58.5 31.5L55 39L58.5 37L61.5 27.5L65.5 23L68 22L69 25L68.5 27L70 21" stroke="black" stroke-width="3"/>
  
      </mask>
      <mask id="name-mask-m">
        <path class="mask" id="mask-m" d="M77.5 21H75L74 22L73 22.5L72 25L71.5 28.5L67.5 37.5L66.5 39L70 37.5L72 33L74 28.5L78.5 23.5L81.5 21.5L83 22.5L79.5 26.5L76 35L75 38L79.5 35L82.5 27L86.5 23L91 21.5L87 29.5L85 34.5V38.5L91.5 32" stroke="black" stroke-width="3"/>
  
      </mask>
      <mask id="name-mask-a">
        <g id="mask-a">
          <path class="mask" id="mask-a-main" d="M104.5 22.5L101.5 21.5H99.5L95.5 27L93 31.5L92 37.5L95.5 36.5L98 34L102 27.5L106.5 21.5L109 20L108 23.5L105 26.5L102 31.5L100.5 35V36.5L102.5 38L105 36.5L107.5 30.5" stroke="black" stroke-width="3"/>
            <path class="mask" id="mask-a-dot" d="M112.5 12.5L104 18" stroke="black" stroke-width="3"/>
        </g>
      </mask>
      <mask id="name-mask-n">
        <path class="mask" id="mask-n" d="M116 21L112 22.5L111 23.5L110 28.5L106.5 39L111 33.5L114 27L118.5 22.5L121 21V24.5L118.5 25.5L117 31L116 36V38V39L119.5 36.5L121.5 34.5L123 31L124.5 29.5" stroke="black" stroke-width="3"/>
  
      </mask>
      <mask id="name-mask-H">
        <g id="mask-H">
           <path class="mask" id="mask-H-main-1" d="M165 4L162.5 4.5L161.5 6L160 8.5L157 15.5L154.5 21.5L154 22" stroke="black" stroke-width="3"/>



          <path class="mask" id="mask-H-main-2" d="M155 21.5L154 22.5V23V23.5L153.5 24.5L152.5 26.5L151.5 28.5L150.5 30.5L145.5 37.5L140 40.5L137.5 41H136L134.5 40.5L133 39.5L132 38.5V38L134.5 34.5" stroke="black" stroke-width="2"/>




          <path class="mask" id="mask-H-main-3" d="M187 3.5L184.5 2L181 4L178.5 6.5L176.5 9.5L175.5 11.5L172 19L170.5 21.5" stroke="black" stroke-width="3"/>



          <path class="mask" id="mask-H-main-4" d="M171 21L170.5 22.5L170 23.5L169.5 25L169 26.5L168.5 27.5L168 29L167.5 30.5L167 32L166.5 35L166 36.5V37.5L168 36L167 39L171 36L174.5 30" stroke="black" stroke-width="2.3"/>


           <path class="mask" id="mask-H-main-5" d="M147 24L178 24" stroke="black" stroke-width="3"/>

           <path class="mask" id="mask-H-main-6" d="M167.5 6.5L163.5 8L154 4.5L142.5 3.5L135 6.5L133 13L136.5 17L140 18L144.5 16" stroke="black" stroke-width="3"/>

        </g>
      </mask>
      <mask id="name-mask-o">
        <path class="mask" id="mask-o" d="M189 21.5H183L179 28.5L177.5 37.5L181 38.5L186.5 34L190.5 21.5" stroke="black" stroke-width="4"/>
  
      </mask>
      <mask id="name-mask-r-2">
        <path class="mask" id="mask-r-2" d="M198 20.5L193.5 23L189 38.5L198 24.5L201.5 20.5V27" stroke="black" stroke-width="4"/>
  
      </mask>
      <mask id="name-mask-i">
        <g id="mask-i">
          <path class="mask" id="mask-i-main" d="M211 21L204 27L202 37.5H206.5L208.5 32" stroke="black" stroke-width="4"/>
          <path class="mask" id="mask-i-dot" d="M215.5 13.5L209 16.5" stroke="black" stroke-width="4"/>
        </g>
      </mask>
      <mask id="name-mask-a-2">
        <path class="mask" id="mask-a-2" d="M222 21.5L215.5 22.5L210.5 33.5V38.5L221 27L224 20H226.5L223 27L218.5 36V39.5L225 31" stroke="black" stroke-width="4"/>
      </mask>
      <mask id="name-mask-n-2">
        <path class="mask" id="mask-n-2" d="M234 21L229 22L227 29.5L224.5 39L234 23.5L239 21L234 35.5V39L241 29.5" stroke="black" stroke-width="4"/>
  
      </mask>
      <mask id="name-mask-s">
        <path class="mask" id="mask-s" d="M251.5 26.5L253.5 21H247L244 26.5L248 31L250.5 35L245 38H239.5V35L241.5 34" stroke="black" stroke-width="4"/>
      </mask>
      <mask id="name-mask-k">
        <path class="mask" id="mask-k" d="M274 7L268 4.5L258.5 19L252 39L261 23L265 21.5V26.5L261 28.5L258.5 32.5L261 36.5L266.5 38V36.5" stroke="black" stroke-width="4"/>
      </mask>
      <mask id="name-mask-i-2">
        <g id="mask-i-2">
          <path class="mask" id="mask-i-main-2" d="M278 21.5L271.5 23.5L267.5 35.5L271.5 37.5L278 29.5" stroke="black" stroke-width="4"/>
        <path class="mask" id="mask-i-dot-2" d="M282 13L273.5 18" stroke="black" stroke-width="4"/>
        </g>
      </mask>
    </g>
    </defs>
    <g>
      <path mask="url(#name-mask-G)" id="name-char-G" d="M24.184 52.448C23.864 52.448 23.512 52.416 23.128 52.352C22.776 52.32 22.472 52.24 22.216 52.112C22.088 52.048 21.864 51.92 21.544 51.728C21.224 51.536 21.064 51.36 21.064 51.2C21.064 51.04 21.128 50.96 21.256 50.96C21.416 50.992 21.496 50.912 21.496 50.72C21.496 50.496 21.432 50.24 21.304 49.952C21.176 49.696 21.112 49.408 21.112 49.088C21.112 48.896 21.16 48.624 21.256 48.272C21.384 47.92 21.576 47.744 21.832 47.744C21.896 47.744 21.928 47.808 21.928 47.936C21.928 48.16 21.88 48.384 21.784 48.608C21.688 48.864 21.64 49.12 21.64 49.376C21.64 49.728 21.816 50.08 22.168 50.432C22.552 50.816 22.984 51.12 23.464 51.344C23.944 51.568 24.344 51.68 24.664 51.68C24.824 51.68 24.984 51.68 25.144 51.68C25.304 51.68 25.448 51.664 25.576 51.632C26.888 51.408 28.056 50.8 29.08 49.808C30.136 48.816 31.064 47.584 31.864 46.112C32.664 44.64 33.352 43.088 33.928 41.456C34.504 39.824 35 38.256 35.416 36.752C35.832 35.216 36.168 33.904 36.424 32.816C34.856 34.352 33.032 35.712 30.952 36.896C28.872 38.048 26.68 38.944 24.376 39.584C22.072 40.224 19.816 40.544 17.608 40.544C14.12 40.544 11.304 39.664 9.16002 37.904C7.01602 36.144 5.94403 33.424 5.94403 29.744C5.94403 26.928 6.50403 24.256 7.62403 21.728C8.74403 19.168 10.232 16.832 12.088 14.72C13.976 12.608 16.056 10.8 18.328 9.29598C17.08 9.13598 15.816 8.97598 14.536 8.81598C13.256 8.65598 11.992 8.57598 10.744 8.57598C9.30403 8.57598 8.00803 8.76798 6.85603 9.15198C5.73603 9.53598 4.68003 10.272 3.68802 11.36C3.40003 11.68 3.17603 11.968 3.01603 12.224C2.85603 12.48 2.77602 12.832 2.77602 13.28C2.77602 14.016 2.90402 14.56 3.16003 14.912C3.44802 15.232 3.76803 15.44 4.12003 15.536C4.47203 15.632 4.79202 15.696 5.08002 15.728C5.40002 15.728 5.60803 15.808 5.70403 15.968C5.67203 16.064 5.56002 16.144 5.36802 16.208C5.17602 16.24 5.01602 16.256 4.88802 16.256C4.40802 16.256 3.99203 16.144 3.64003 15.92C3.32003 15.696 3.03202 15.488 2.77602 15.296C2.55202 15.072 2.34402 14.96 2.15202 14.96C2.08802 14.96 2.02402 14.992 1.96002 15.056C1.92802 15.12 1.86402 15.152 1.76802 15.152C1.51202 15.152 1.36802 14.976 1.33602 14.624C1.30402 14.24 1.28802 13.984 1.28802 13.856C1.28802 13.504 1.43202 13.104 1.72002 12.656C2.00802 12.208 2.26402 11.856 2.48802 11.6C3.86402 9.93598 5.33602 8.76798 6.90403 8.09598C8.50403 7.42398 10.36 7.08798 12.472 7.08798C13.848 7.08798 15.208 7.18398 16.552 7.37598C17.896 7.53598 19.24 7.72798 20.584 7.95198C22.152 7.08798 23.816 6.44798 25.576 6.03198C27.336 5.58398 29.096 5.35998 30.856 5.35998C31.88 5.35998 32.952 5.47198 34.072 5.69598C35.192 5.88798 36.232 6.22398 37.192 6.70398C38.184 7.18398 38.984 7.83998 39.592 8.67198C40.2 9.50398 40.504 10.544 40.504 11.792C40.504 12.784 40.328 13.76 39.976 14.72C39.976 14.848 39.944 14.96 39.88 15.056C39.848 15.12 39.8 15.2 39.736 15.296C39.512 15.712 39.304 16.096 39.112 16.448C38.92 16.768 38.52 16.928 37.912 16.928C37.496 16.928 37.288 16.704 37.288 16.256C37.288 16.096 37.288 15.936 37.288 15.776C37.32 15.584 37.352 15.424 37.384 15.296C34.824 13.888 32.04 12.72 29.032 11.792C26.056 10.832 23.128 10.096 20.248 9.58398C18.808 10.672 17.4 11.968 16.024 13.472C14.648 14.976 13.4 16.624 12.28 18.416C11.192 20.176 10.312 22.016 9.64003 23.936C9.00003 25.856 8.68003 27.76 8.68003 29.648C8.68003 31.792 9.16003 33.584 10.12 35.024C11.08 36.464 12.376 37.536 14.008 38.24C15.64 38.944 17.48 39.296 19.528 39.296C21.288 39.296 23.064 39.024 24.856 38.48C26.68 37.968 28.408 37.248 30.04 36.32C31.672 35.36 33.096 34.256 34.312 33.008C35.368 31.952 36.328 30.8 37.192 29.552C37.32 29.008 37.464 28.448 37.624 27.872C37.784 27.296 37.896 26.72 37.96 26.144C37.672 26.144 37.384 26.16 37.096 26.192C36.808 26.192 36.536 26.192 36.28 26.192C34.104 26.192 31.912 26.112 29.704 25.952C27.528 25.792 25.352 25.664 23.176 25.568C23.016 25.568 22.84 25.568 22.648 25.568C22.456 25.536 22.28 25.52 22.12 25.52C21.288 25.52 20.344 25.616 19.288 25.808C18.264 26 17.464 26.432 16.888 27.104C16.6 27.424 16.376 27.808 16.216 28.256C16.088 28.672 15.928 29.072 15.736 29.456C15.256 29.2 15.016 28.864 15.016 28.448C15.016 28.128 15.24 27.776 15.688 27.392C16.136 27.008 16.616 26.656 17.128 26.336C17.672 25.984 18.072 25.744 18.328 25.616C19.416 25.04 20.552 24.592 21.736 24.272C22.92 23.952 24.12 23.792 25.336 23.792C27.672 23.792 29.992 23.888 32.296 24.08C34.6 24.24 36.904 24.32 39.208 24.32C40.008 24.32 40.824 24.16 41.656 23.84C42.488 23.488 43.176 23.04 43.72 22.496C43.784 22.432 43.864 22.4 43.96 22.4C44.056 22.4 44.104 22.464 44.104 22.592C44.104 22.784 43.912 23.04 43.528 23.36C43.176 23.68 42.776 23.984 42.328 24.272C41.912 24.528 41.624 24.72 41.464 24.848C41.048 25.392 40.68 26.128 40.36 27.056C40.04 27.952 39.752 28.88 39.496 29.84C39.272 30.8 39.08 31.616 38.92 32.288C38.504 33.92 38.024 35.696 37.48 37.616C36.968 39.504 36.312 41.376 35.512 43.232C34.744 45.088 33.768 46.752 32.584 48.224C31.432 49.696 30.008 50.8 28.312 51.536C27.736 51.792 27.176 51.984 26.632 52.112C26.088 52.24 25.496 52.336 24.856 52.4C24.728 52.432 24.6 52.448 24.472 52.448C24.376 52.448 24.28 52.448 24.184 52.448ZM37.768 13.184C37.8 12.992 37.816 12.8 37.816 12.608C37.848 12.416 37.864 12.208 37.864 11.984C37.864 10.544 37.464 9.42398 36.664 8.62398C35.864 7.79198 34.872 7.21598 33.688 6.89598C32.504 6.54398 31.304 6.36798 30.088 6.36798C28.808 6.36798 27.48 6.52798 26.104 6.84798C24.728 7.13598 23.464 7.59998 22.312 8.23998C24.968 8.75198 27.592 9.42398 30.184 10.256C32.776 11.088 35.304 12.064 37.768 13.184Z" fill="white"/>
      <path mask="url(#name-mask-e)" id="name-char-e" d="M45.601 38.192C43.745 38.192 42.817 37.248 42.817 35.36C42.817 33.952 43.105 32.448 43.681 30.848C44.257 29.216 45.009 27.664 45.937 26.192C46.865 24.688 47.841 23.472 48.865 22.544C50.081 21.488 51.505 20.96 53.137 20.96C53.521 20.96 53.985 21.008 54.529 21.104C55.105 21.2 55.601 21.392 56.017 21.68C56.433 21.936 56.641 22.32 56.641 22.832C56.641 23.568 56.369 24.416 55.825 25.376C55.281 26.304 54.785 27.056 54.337 27.632C54.497 27.664 54.689 27.712 54.913 27.776C55.169 27.84 55.297 27.968 55.297 28.16C55.297 28.256 55.217 28.304 55.057 28.304C54.769 28.304 54.481 28.272 54.193 28.208C53.905 28.144 53.617 28.112 53.329 28.112C52.241 28.112 51.121 28.272 49.969 28.592C48.849 28.912 47.777 29.248 46.753 29.6C46.433 30.368 46.145 31.216 45.889 32.144C45.665 33.072 45.553 33.952 45.553 34.784C45.553 35.392 45.665 35.936 45.889 36.416C46.145 36.896 46.625 37.136 47.329 37.136C48.193 37.136 49.073 36.896 49.969 36.416C50.897 35.904 51.777 35.264 52.609 34.496C53.473 33.696 54.241 32.864 54.913 32C55.585 31.136 56.113 30.352 56.497 29.648C56.529 29.68 56.545 29.744 56.545 29.84C56.545 30.128 56.369 30.528 56.017 31.04C55.665 31.52 55.297 32 54.913 32.48C54.561 32.96 54.353 33.312 54.289 33.536C54.257 33.76 54.193 33.952 54.097 34.112C54.033 34.272 53.953 34.448 53.857 34.64C53.313 35.184 52.529 35.744 51.505 36.32C50.513 36.864 49.473 37.312 48.385 37.664C47.329 38.016 46.401 38.192 45.601 38.192ZM47.425 28.064C48.257 27.904 49.073 27.776 49.873 27.68C50.705 27.584 51.537 27.536 52.369 27.536C52.625 27.536 52.881 27.536 53.137 27.536C53.393 27.536 53.649 27.552 53.905 27.584C54.161 27.04 54.369 26.448 54.529 25.808C54.721 25.168 54.817 24.544 54.817 23.936C54.817 23.456 54.721 22.976 54.529 22.496C54.337 21.984 53.921 21.728 53.281 21.728C52.673 21.728 52.049 21.984 51.409 22.496C50.801 23.008 50.305 23.472 49.921 23.888C49.409 24.496 48.945 25.168 48.529 25.904C48.145 26.608 47.777 27.328 47.425 28.064Z" fill="white"/>
  <path mask="url(#name-mask-r)" id="name-char-r" d="M55.1594 38.624C55.0954 38.624 55.0634 38.608 55.0634 38.576C55.0634 38.448 55.1274 38.32 55.2554 38.192C55.3514 38.096 55.4314 38 55.4954 37.904C55.7834 37.424 56.1034 36.608 56.4554 35.456C56.8394 34.272 57.2074 32.976 57.5594 31.568C57.9434 30.16 58.2794 28.848 58.5674 27.632C58.8874 26.384 59.1114 25.44 59.2394 24.8C59.3034 24.544 59.3674 24.208 59.4314 23.792C59.5274 23.376 59.6394 22.96 59.7674 22.544C59.8954 22.128 60.0394 21.856 60.1994 21.728C60.4874 21.472 60.9194 21.248 61.4954 21.056C62.0714 20.864 62.6474 20.72 63.2234 20.624C63.8314 20.496 64.3274 20.432 64.7114 20.432C64.7754 20.432 64.8554 20.464 64.9514 20.528C65.0474 20.592 65.1114 20.656 65.1434 20.72L65.1914 20.864C65.1594 20.96 65.1114 21.008 65.0474 21.008C64.9834 20.976 64.9194 20.96 64.8554 20.96C64.2474 20.96 63.6874 21.312 63.1754 22.016C62.6634 22.688 62.2154 23.52 61.8314 24.512C61.4474 25.504 61.1114 26.464 60.8234 27.392C60.5674 28.288 60.3914 28.96 60.2954 29.408C60.6154 28.672 61.0314 27.84 61.5434 26.912C62.0874 25.952 62.7114 25.04 63.4154 24.176C64.1194 23.28 64.8874 22.544 65.7194 21.968C66.5514 21.36 67.4314 21.056 68.3594 21.056C68.4874 21.056 68.6954 21.088 68.9834 21.152C69.3034 21.184 69.5914 21.264 69.8474 21.392C70.1354 21.488 70.2794 21.616 70.2794 21.776L70.2314 21.824H70.1834L69.8954 21.728C69.9914 21.952 70.0554 22.176 70.0874 22.4C70.1194 22.624 70.1354 22.848 70.1354 23.072C70.1354 23.264 70.0714 23.68 69.9434 24.32C69.8474 24.96 69.7034 25.568 69.5114 26.144C69.3514 26.688 69.1754 26.96 68.9834 26.96C68.8554 26.96 68.7914 26.912 68.7914 26.816C68.7914 26.656 68.8394 26.4 68.9354 26.048C69.0634 25.664 69.1274 25.312 69.1274 24.992C69.1274 24.416 68.9834 23.952 68.6954 23.6C68.4074 23.248 67.9754 23.072 67.3994 23.072C66.4394 23.072 65.5114 23.488 64.6154 24.32C63.7194 25.12 62.9034 26.128 62.1674 27.344C61.4314 28.528 60.8074 29.728 60.2954 30.944C59.7834 32.16 59.4314 33.152 59.2394 33.92C59.1114 34.336 58.9994 34.88 58.9034 35.552C58.8074 36.192 58.5674 36.64 58.1834 36.896C58.0874 36.928 57.7834 37.088 57.2714 37.376C56.7914 37.664 56.3274 37.936 55.8794 38.192C55.3994 38.48 55.1594 38.624 55.1594 38.624Z" fill="white"/>
  <path mask="url(#name-mask-m)" id="name-char-m" d="M66.9708 38.624C66.9388 38.624 66.9228 38.608 66.9228 38.576C66.9228 38.448 66.9868 38.32 67.1148 38.192C67.2108 38.064 67.2748 37.968 67.3068 37.904C67.5308 37.552 67.8028 36.96 68.1228 36.128C68.4108 35.264 68.6988 34.304 68.9868 33.248C69.3068 32.16 69.5948 31.072 69.8508 29.984C70.1388 28.864 70.3948 27.84 70.6188 26.912C70.8428 25.984 71.0028 25.28 71.0988 24.8C71.1628 24.544 71.2268 24.208 71.2908 23.792C71.3548 23.376 71.4508 22.96 71.5788 22.544C71.7068 22.128 71.8508 21.856 72.0108 21.728C72.2988 21.472 72.7308 21.248 73.3068 21.056C73.8828 20.864 74.4748 20.72 75.0828 20.624C75.6908 20.496 76.1708 20.432 76.5228 20.432C76.7148 20.432 76.8588 20.528 76.9548 20.72L77.0028 20.864C76.9708 20.96 76.9228 21.008 76.8588 21.008C76.7948 20.976 76.7308 20.96 76.6668 20.96C75.9628 20.96 75.3388 21.36 74.7948 22.16C74.2828 22.928 73.8188 23.888 73.4028 25.04C73.0188 26.16 72.6988 27.248 72.4428 28.304C72.2188 29.36 72.0428 30.16 71.9148 30.704C72.9388 28.976 74.1068 27.296 75.4188 25.664C76.7628 24.032 78.3148 22.72 80.0748 21.728C80.3308 21.6 80.5868 21.472 80.8428 21.344C81.1308 21.184 81.4028 21.104 81.6588 21.104C82.0748 21.104 82.3308 21.296 82.4268 21.68C82.5228 22.032 82.5708 22.368 82.5708 22.688C82.5708 23.104 82.4428 23.696 82.1868 24.464C81.9628 25.2 81.6908 25.936 81.3708 26.672C81.0828 27.408 80.8428 27.984 80.6508 28.4C81.6428 27.088 82.7468 25.856 83.9628 24.704C85.1788 23.52 86.5228 22.528 87.9948 21.728C88.2188 21.6 88.4748 21.472 88.7628 21.344C89.0508 21.184 89.3228 21.104 89.5788 21.104C89.9948 21.104 90.2348 21.296 90.2988 21.68C90.3948 22.032 90.4428 22.368 90.4428 22.688C90.4428 23.168 90.2988 23.776 90.0108 24.512C89.7548 25.216 89.4508 25.936 89.0988 26.672C88.7788 27.376 88.5228 27.968 88.3308 28.448C88.1068 28.96 87.8828 29.488 87.6588 30.032C87.4668 30.576 87.2908 31.12 87.1308 31.664C87.0028 32.176 86.8588 32.752 86.6988 33.392C86.5388 34 86.4588 34.576 86.4588 35.12C86.4588 35.344 86.4908 35.6 86.5548 35.888C86.6508 36.176 86.8428 36.32 87.1308 36.32C87.2908 36.32 87.4188 36.288 87.5148 36.224C87.6428 36.16 87.7708 36.096 87.8988 36.032C88.6348 35.616 89.3388 35.056 90.0108 34.352C90.7148 33.616 91.3548 32.832 91.9308 32C92.5068 31.136 92.9868 30.352 93.3708 29.648C93.4028 29.68 93.4188 29.744 93.4188 29.84C93.4188 30.032 93.3068 30.32 93.0828 30.704C92.8588 31.056 92.6028 31.44 92.3148 31.856C92.0268 32.272 91.7548 32.64 91.4988 32.96C91.2748 33.28 91.1628 33.472 91.1628 33.536C91.1308 33.76 91.0828 33.952 91.0188 34.112C90.9548 34.24 90.8588 34.416 90.7308 34.64C90.3468 35.024 89.7868 35.504 89.0508 36.08C88.3468 36.624 87.6108 37.12 86.8428 37.568C86.0748 37.984 85.4028 38.192 84.8268 38.192C84.3468 38.192 84.0268 38.032 83.8668 37.712C83.7068 37.36 83.6268 36.976 83.6268 36.56C83.6268 35.728 83.8188 34.704 84.2028 33.488C84.5868 32.24 85.0188 30.992 85.4988 29.744C85.9788 28.496 86.3628 27.472 86.6508 26.672C86.7468 26.416 86.8908 26 87.0828 25.424C87.3068 24.848 87.4188 24.448 87.4188 24.224C87.4188 24.032 87.3868 23.84 87.3228 23.648C87.2588 23.456 87.0988 23.36 86.8428 23.36C86.3308 23.36 85.7068 23.696 84.9708 24.368C84.2668 25.04 83.5468 25.856 82.8108 26.816C82.0748 27.744 81.4188 28.656 80.8428 29.552C80.2988 30.416 79.9148 31.056 79.6908 31.472C79.3708 32.112 79.0668 32.784 78.7788 33.488C78.4908 34.16 78.2828 34.848 78.1548 35.552C77.8668 35.552 77.4828 35.744 77.0028 36.128C76.5548 36.512 76.1228 36.896 75.7068 37.28C75.3228 37.632 75.0828 37.808 74.9868 37.808C74.9228 37.808 74.9068 37.776 74.9388 37.712C74.9708 37.616 74.9868 37.536 74.9868 37.472L75.0348 37.136C75.0988 36.656 75.1948 36.192 75.3228 35.744C75.4828 35.264 75.6268 34.816 75.7548 34.4C75.9148 33.856 76.0908 33.312 76.2828 32.768C76.5068 32.192 76.7308 31.648 76.9548 31.136C77.0508 30.88 77.2268 30.432 77.4828 29.792C77.7708 29.12 78.0748 28.384 78.3948 27.584C78.7148 26.784 78.9868 26.08 79.2108 25.472C79.4348 24.832 79.5468 24.416 79.5468 24.224C79.5468 24.064 79.5148 23.888 79.4508 23.696C79.4188 23.504 79.2748 23.408 79.0188 23.408C78.6988 23.408 78.2828 23.616 77.7708 24.032C77.2908 24.448 76.9228 24.784 76.6668 25.04C75.2908 26.544 74.0908 28.256 73.0668 30.176C72.0748 32.064 71.2588 33.984 70.6188 35.936C70.5228 36.192 70.4588 36.368 70.4268 36.464C70.4268 36.56 70.2988 36.704 70.0428 36.896C69.9468 36.928 69.6428 37.088 69.1308 37.376C68.6508 37.664 68.1868 37.936 67.7388 38.192C67.2588 38.48 67.0028 38.624 66.9708 38.624Z" fill="white"/>
  <path mask="url(#name-mask-a)" id="name-char-a" d="M92.4389 38.096C91.9269 38.096 91.5909 37.904 91.4309 37.52C91.3029 37.104 91.2389 36.688 91.2389 36.272C91.2389 34.768 91.5269 33.152 92.1029 31.424C92.6789 29.696 93.4309 28.048 94.3589 26.48C95.2869 24.88 96.2949 23.568 97.3829 22.544C98.5349 21.488 99.8949 20.96 101.463 20.96C102.103 20.96 102.727 21.04 103.335 21.2C103.975 21.328 104.599 21.52 105.207 21.776C105.751 21.392 106.343 21.056 106.983 20.768C107.623 20.48 108.279 20.336 108.951 20.336C109.111 20.336 109.239 20.432 109.335 20.624V20.768C109.335 20.864 109.287 20.912 109.191 20.912C109.127 20.88 109.063 20.864 108.999 20.864C108.487 20.864 107.927 21.264 107.319 22.064C106.711 22.832 106.103 23.824 105.495 25.04C104.887 26.256 104.327 27.536 103.815 28.88C103.335 30.224 102.935 31.456 102.615 32.576C102.327 33.696 102.183 34.544 102.183 35.12C102.183 35.344 102.215 35.6 102.279 35.888C102.375 36.176 102.567 36.32 102.855 36.32C103.015 36.32 103.143 36.288 103.239 36.224C103.367 36.16 103.495 36.096 103.623 36.032C104.327 35.616 105.015 35.056 105.687 34.352C106.391 33.616 107.031 32.832 107.607 32C108.215 31.136 108.711 30.352 109.095 29.648C109.127 29.68 109.143 29.744 109.143 29.84C109.143 30.032 109.031 30.32 108.807 30.704C108.583 31.056 108.327 31.44 108.039 31.856C107.751 32.272 107.479 32.64 107.223 32.96C106.999 33.28 106.887 33.472 106.887 33.536C106.855 33.76 106.807 33.952 106.743 34.112C106.679 34.24 106.583 34.416 106.455 34.64C106.039 35.056 105.511 35.536 104.871 36.08C104.231 36.624 103.559 37.104 102.855 37.52C102.183 37.904 101.527 38.096 100.887 38.096C99.8949 38.096 99.3989 37.568 99.3989 36.512C99.3989 35.872 99.5269 35.136 99.7829 34.304C100.071 33.44 100.391 32.592 100.743 31.76C101.127 30.896 101.463 30.176 101.751 29.6C101.751 29.568 101.751 29.52 101.751 29.456C101.751 29.392 101.735 29.36 101.703 29.36C101.671 29.36 101.623 29.392 101.559 29.456C101.175 29.968 100.615 30.704 99.8789 31.664C99.1429 32.624 98.3269 33.6 97.4309 34.592C96.5669 35.552 95.6869 36.384 94.7909 37.088C93.8949 37.76 93.1109 38.096 92.4389 38.096ZM94.5509 36.032C94.9029 36.032 95.3349 35.808 95.8469 35.36C96.3909 34.88 96.9509 34.32 97.5269 33.68C98.1349 33.008 98.6629 32.368 99.1109 31.76C99.5909 31.152 99.9269 30.704 100.119 30.416C100.503 29.84 100.935 29.12 101.415 28.256C101.927 27.392 102.359 26.496 102.711 25.568C103.095 24.64 103.287 23.856 103.287 23.216C103.287 22.224 102.791 21.728 101.799 21.728C101.223 21.728 100.615 21.984 99.9749 22.496C99.3349 23.008 98.8229 23.472 98.4389 23.888C98.0229 24.4 97.5429 25.136 96.9989 26.096C96.4869 27.056 96.0069 28.096 95.5589 29.216C95.1109 30.336 94.7269 31.408 94.4069 32.432C94.1189 33.456 93.9749 34.304 93.9749 34.976C93.9749 35.168 94.0069 35.392 94.0709 35.648C94.1349 35.904 94.2949 36.032 94.5509 36.032ZM104.535 17.744C104.375 17.744 104.231 17.712 104.103 17.648C103.975 17.552 104.023 17.44 104.247 17.312C104.695 17.12 105.207 16.8 105.783 16.352C106.359 15.904 106.935 15.424 107.511 14.912C108.119 14.4 108.647 13.936 109.095 13.52C109.543 13.104 109.863 12.832 110.055 12.704C110.183 12.608 110.391 12.544 110.679 12.512C110.967 12.448 111.255 12.416 111.543 12.416C112.119 12.416 112.407 12.512 112.407 12.704C112.375 12.864 112.279 13.088 112.119 13.376C111.959 13.664 111.495 14.048 110.727 14.528C110.663 14.56 110.343 14.736 109.767 15.056C109.223 15.376 108.583 15.744 107.847 16.16C107.143 16.544 106.487 16.896 105.879 17.216C105.303 17.536 104.967 17.696 104.871 17.696C104.807 17.728 104.695 17.744 104.535 17.744Z" fill="white"/>
  <path mask="url(#name-mask-n)" id="name-char-n" d="M105.69 38.624C105.658 38.624 105.642 38.608 105.642 38.576C105.642 38.448 105.706 38.32 105.834 38.192C105.93 38.064 105.994 37.968 106.026 37.904C106.25 37.552 106.522 36.96 106.842 36.128C107.13 35.264 107.418 34.304 107.706 33.248C108.026 32.16 108.314 31.072 108.57 29.984C108.858 28.864 109.114 27.84 109.338 26.912C109.562 25.984 109.722 25.28 109.818 24.8C109.882 24.544 109.946 24.208 110.01 23.792C110.074 23.376 110.17 22.96 110.298 22.544C110.426 22.128 110.57 21.856 110.73 21.728C111.05 21.472 111.482 21.248 112.026 21.056C112.602 20.864 113.194 20.72 113.802 20.624C114.41 20.496 114.906 20.432 115.29 20.432C115.354 20.432 115.434 20.464 115.53 20.528C115.626 20.592 115.69 20.656 115.722 20.72V20.864C115.722 20.96 115.69 21.008 115.626 21.008C115.562 20.976 115.498 20.96 115.434 20.96C114.73 20.96 114.106 21.36 113.562 22.16C113.018 22.928 112.554 23.888 112.17 25.04C111.786 26.16 111.466 27.248 111.21 28.304C110.954 29.36 110.762 30.16 110.634 30.704C111.658 28.944 112.826 27.264 114.138 25.664C115.482 24.032 117.05 22.72 118.842 21.728C119.066 21.6 119.322 21.472 119.61 21.344C119.898 21.184 120.154 21.104 120.378 21.104C120.794 21.104 121.05 21.296 121.146 21.68C121.242 22.032 121.29 22.368 121.29 22.688C121.29 23.104 121.146 23.712 120.858 24.512C120.57 25.312 120.234 26.112 119.85 26.912C119.498 27.68 119.226 28.288 119.034 28.736C118.842 29.248 118.618 29.904 118.362 30.704C118.106 31.504 117.882 32.304 117.69 33.104C117.498 33.904 117.402 34.576 117.402 35.12C117.402 35.344 117.434 35.6 117.498 35.888C117.562 36.176 117.738 36.32 118.026 36.32C118.186 36.32 118.314 36.288 118.41 36.224C118.538 36.16 118.666 36.096 118.794 36.032C119.53 35.616 120.234 35.056 120.906 34.352C121.61 33.616 122.25 32.832 122.826 32C123.402 31.136 123.882 30.352 124.266 29.648C124.298 29.68 124.314 29.744 124.314 29.84C124.314 30.032 124.202 30.32 123.978 30.704C123.754 31.056 123.498 31.44 123.21 31.856C122.922 32.272 122.65 32.64 122.394 32.96C122.17 33.28 122.058 33.472 122.058 33.536C122.026 33.76 121.978 33.952 121.914 34.112C121.85 34.24 121.77 34.416 121.674 34.64C121.29 35.024 120.73 35.504 119.994 36.08C119.29 36.624 118.554 37.12 117.786 37.568C117.05 37.984 116.394 38.192 115.818 38.192C115.306 38.192 114.954 38 114.762 37.616C114.602 37.2 114.522 36.768 114.522 36.32C114.522 35.456 114.698 34.432 115.05 33.248C115.402 32.032 115.818 30.832 116.298 29.648C116.778 28.432 117.178 27.408 117.498 26.576C117.594 26.32 117.738 25.92 117.93 25.376C118.154 24.832 118.266 24.448 118.266 24.224C118.266 24.064 118.234 23.888 118.17 23.696C118.138 23.504 117.994 23.408 117.738 23.408C117.418 23.408 117.002 23.616 116.49 24.032C116.01 24.448 115.642 24.784 115.386 25.04C114.01 26.576 112.826 28.288 111.834 30.176C110.842 32.032 110.01 33.952 109.338 35.936C109.242 36.192 109.178 36.384 109.146 36.512C109.146 36.608 109.018 36.736 108.762 36.896C108.666 36.96 108.362 37.136 107.85 37.424C107.37 37.712 106.906 37.984 106.458 38.24C105.978 38.496 105.722 38.624 105.69 38.624Z" fill="white"/>
  <path mask="url(#name-mask-H)" id="name-char-H" d="M136.933 42.8C134.949 42.8 133.253 42.096 131.845 40.688C131.717 40.56 131.573 40.4 131.413 40.208C131.285 40.048 131.221 39.872 131.221 39.68C131.221 39.424 131.301 39.296 131.461 39.296C131.653 39.296 131.781 39.264 131.845 39.2C132.037 39.04 132.133 38.848 132.133 38.624C132.133 38.432 132.149 38.224 132.181 38C132.245 37.584 132.453 37.12 132.805 36.608C133.189 36.096 133.621 35.84 134.101 35.84C134.165 35.84 134.197 35.872 134.197 35.936C134.197 36.064 134.085 36.24 133.861 36.464C133.637 36.656 133.397 36.912 133.141 37.232C132.917 37.552 132.805 37.92 132.805 38.336C132.805 39.04 133.141 39.6 133.813 40.016C134.485 40.464 135.237 40.784 136.069 40.976C136.933 41.168 137.637 41.264 138.181 41.264C139.653 41.264 140.997 40.912 142.213 40.208C143.429 39.536 144.549 38.64 145.573 37.52C146.597 36.4 147.509 35.168 148.309 33.824C149.109 32.448 149.813 31.088 150.421 29.744C151.061 28.368 151.589 27.104 152.005 25.952H149.509C149.381 25.952 149.125 25.92 148.741 25.856C148.389 25.76 148.053 25.648 147.733 25.52C147.413 25.392 147.253 25.248 147.253 25.088C147.253 24.896 147.493 24.752 147.973 24.656C148.485 24.528 149.077 24.448 149.749 24.416C150.453 24.352 151.109 24.304 151.717 24.272C152.325 24.24 152.725 24.224 152.917 24.224C154.037 21.568 155.125 18.896 156.181 16.208C157.237 13.488 158.309 10.8 159.397 8.14398C157.061 7.50398 154.741 6.91198 152.437 6.36798C150.133 5.82398 147.749 5.55198 145.285 5.55198C144.133 5.55198 142.885 5.66398 141.541 5.88798C140.229 6.07998 138.997 6.46398 137.845 7.03998C136.693 7.58398 135.765 8.38398 135.061 9.43998C134.805 9.85598 134.597 10.304 134.437 10.784C134.277 11.232 134.197 11.712 134.197 12.224C134.197 13.568 134.597 14.704 135.397 15.632C136.197 16.528 137.189 17.2 138.373 17.648C139.557 18.096 140.741 18.32 141.925 18.32C142.405 18.32 142.853 18.224 143.269 18.032C143.685 17.808 144.053 17.536 144.373 17.216C144.469 17.248 144.517 17.312 144.517 17.408C144.517 17.536 144.501 17.632 144.469 17.696C144.053 18.304 143.493 18.72 142.789 18.944C142.085 19.136 141.381 19.232 140.677 19.232C139.333 19.232 138.021 18.976 136.741 18.464C135.493 17.952 134.453 17.184 133.621 16.16C132.821 15.136 132.421 13.872 132.421 12.368C132.421 11.728 132.501 11.12 132.661 10.544C132.853 9.93598 133.109 9.35998 133.429 8.81598C134.197 7.53598 135.221 6.54398 136.501 5.83998C137.781 5.10398 139.157 4.59198 140.629 4.30398C142.133 4.01598 143.573 3.87198 144.949 3.87198C147.509 3.87198 150.037 4.19198 152.533 4.83198C155.029 5.47198 157.509 6.14398 159.973 6.84798C160.229 6.30398 160.613 5.77598 161.125 5.26398C161.637 4.75198 162.229 4.49598 162.901 4.49598C163.253 4.49598 163.573 4.60798 163.861 4.83198C164.181 5.02398 164.357 5.31198 164.389 5.69598C164.133 5.82398 163.845 6.11198 163.525 6.55998C163.205 7.00798 162.965 7.35998 162.805 7.61598C163.189 7.71198 163.589 7.82398 164.005 7.95198C164.453 8.04798 164.885 8.09598 165.301 8.09598C165.685 8.09598 166.069 7.98398 166.453 7.75998C166.837 7.50398 167.061 7.37598 167.125 7.37598C167.189 7.37598 167.221 7.40798 167.221 7.47198C167.221 7.88798 166.933 8.28798 166.357 8.67198C165.813 9.05598 165.365 9.24798 165.013 9.24798C164.533 9.24798 164.037 9.21598 163.525 9.15198C163.045 9.05598 162.565 8.94398 162.085 8.81598C160.709 11.248 159.429 13.776 158.245 16.4C157.061 18.992 155.989 21.6 155.029 24.224H162.037C163.221 24.224 164.389 24.224 165.541 24.224C166.725 24.224 167.893 24.24 169.045 24.272C169.429 23.344 169.909 22.176 170.485 20.768C171.061 19.36 171.717 17.856 172.453 16.256C173.221 14.624 174.053 13.024 174.949 11.456C175.845 9.88798 176.805 8.44798 177.829 7.13598C178.853 5.82398 179.925 4.78398 181.045 4.01598C182.197 3.21598 183.365 2.81598 184.549 2.81598C184.901 2.81598 185.285 2.87998 185.701 3.00798C186.149 3.13598 186.469 3.35998 186.661 3.67998C186.789 3.80798 186.853 3.95198 186.853 4.11198C186.853 4.23998 186.821 4.30398 186.757 4.30398C186.501 4.20798 186.277 4.03198 186.085 3.77598C185.925 3.51998 185.637 3.39198 185.221 3.39198C184.581 3.39198 183.877 3.64798 183.109 4.15998C182.341 4.63998 181.621 5.21598 180.949 5.88798C180.309 6.55998 179.797 7.15198 179.413 7.66398C178.709 8.65598 178.053 9.71198 177.445 10.832C176.837 11.92 176.261 13.024 175.717 14.144C174.917 15.808 174.133 17.488 173.365 19.184C172.629 20.88 171.909 22.576 171.205 24.272L175.237 24.416C175.493 24.416 175.909 24.432 176.485 24.464C177.093 24.496 177.509 24.56 177.733 24.656C177.829 24.656 177.877 24.704 177.877 24.8C177.877 24.832 177.829 24.864 177.733 24.896C177.669 24.928 177.637 24.944 177.637 24.944C177.125 25.104 176.565 25.232 175.957 25.328C175.381 25.392 174.821 25.44 174.277 25.472C173.669 25.504 173.061 25.536 172.453 25.568C171.877 25.568 171.285 25.584 170.677 25.616C170.325 26.512 169.909 27.632 169.429 28.976C168.949 30.288 168.533 31.616 168.181 32.96C167.829 34.272 167.653 35.408 167.653 36.368C167.653 36.592 167.685 36.896 167.749 37.28C167.845 37.632 168.069 37.808 168.421 37.808C168.581 37.808 168.725 37.776 168.853 37.712C168.981 37.648 169.109 37.584 169.237 37.52C169.973 37.104 170.677 36.544 171.349 35.84C172.053 35.104 172.693 34.32 173.269 33.488C173.845 32.624 174.325 31.84 174.709 31.136C174.741 31.168 174.757 31.216 174.757 31.28C174.757 31.536 174.565 31.936 174.181 32.48C173.829 33.024 173.461 33.552 173.077 34.064C172.725 34.576 172.533 34.896 172.501 35.024C172.469 35.248 172.421 35.44 172.357 35.6C172.293 35.728 172.197 35.904 172.069 36.128C171.685 36.512 171.205 36.96 170.629 37.472C170.053 37.984 169.445 38.432 168.805 38.816C168.165 39.2 167.541 39.392 166.933 39.392C166.229 39.392 165.765 39.168 165.541 38.72C165.349 38.304 165.253 37.808 165.253 37.232C165.253 36.176 165.445 34.928 165.829 33.488C166.213 32.048 166.661 30.624 167.173 29.216C167.685 27.808 168.133 26.624 168.517 25.664H163.333C161.829 25.664 160.325 25.68 158.821 25.712C157.317 25.744 155.813 25.808 154.309 25.904C153.765 27.152 153.061 28.528 152.197 30.032C151.333 31.536 150.341 33.04 149.221 34.544C148.101 36.016 146.885 37.376 145.573 38.624C144.261 39.904 142.869 40.912 141.397 41.648C139.957 42.416 138.469 42.8 136.933 42.8Z" fill="white"/>
  <path mask="url(#name-mask-o)" id="name-char-o" d="M178.144 38.24C177.536 38.24 177.104 38.08 176.848 37.76C176.624 37.408 176.512 36.8 176.512 35.936C176.512 34.688 176.672 33.376 176.992 32C177.312 30.624 177.744 29.296 178.288 28.016C178.832 26.704 179.44 25.568 180.112 24.608C180.624 23.904 181.312 23.248 182.176 22.64C183.04 22.032 183.968 21.536 184.96 21.152C185.952 20.768 186.88 20.576 187.744 20.576C188.032 20.576 188.384 20.624 188.8 20.72C189.216 20.784 189.536 20.912 189.76 21.104C189.92 21.232 190.016 21.408 190.048 21.632C190.112 21.856 190.144 22.064 190.144 22.256C190.144 23.088 190 24.064 189.712 25.184C189.456 26.272 189.104 27.392 188.656 28.544C188.208 29.696 187.728 30.784 187.216 31.808C186.704 32.8 186.192 33.632 185.68 34.304C185.392 34.688 184.928 35.12 184.288 35.6C183.648 36.048 182.944 36.48 182.176 36.896C181.44 37.28 180.704 37.6 179.968 37.856C179.232 38.112 178.624 38.24 178.144 38.24ZM179.44 36.896C180.944 36.576 182.16 35.856 183.088 34.736C183.824 33.872 184.512 32.736 185.152 31.328C185.792 29.92 186.304 28.464 186.688 26.96C187.104 25.456 187.312 24.144 187.312 23.024C187.312 22.928 187.296 22.768 187.264 22.544C187.264 22.32 187.216 22.192 187.12 22.16C186.736 21.968 186.304 21.872 185.824 21.872C185.504 21.872 185.088 21.984 184.576 22.208C184.064 22.4 183.68 22.624 183.424 22.88C183.264 23.04 183.104 23.264 182.944 23.552C182.816 23.808 182.688 24.032 182.56 24.224C181.952 25.184 181.36 26.304 180.784 27.584C180.24 28.864 179.792 30.176 179.44 31.52C179.088 32.864 178.912 34.128 178.912 35.312C178.912 35.696 178.944 36.048 179.008 36.368C179.104 36.656 179.248 36.832 179.44 36.896Z" fill="white"/>
  <path mask="url(#name-mask-r-2)" id="name-char-r" d="M188.331 38.624C188.267 38.624 188.235 38.608 188.235 38.576C188.235 38.448 188.299 38.32 188.427 38.192C188.523 38.096 188.603 38 188.667 37.904C188.955 37.424 189.275 36.608 189.627 35.456C190.011 34.272 190.379 32.976 190.731 31.568C191.115 30.16 191.451 28.848 191.739 27.632C192.059 26.384 192.283 25.44 192.411 24.8C192.475 24.544 192.539 24.208 192.603 23.792C192.699 23.376 192.811 22.96 192.939 22.544C193.067 22.128 193.211 21.856 193.371 21.728C193.659 21.472 194.091 21.248 194.667 21.056C195.243 20.864 195.819 20.72 196.395 20.624C197.003 20.496 197.499 20.432 197.883 20.432C197.947 20.432 198.027 20.464 198.123 20.528C198.219 20.592 198.283 20.656 198.315 20.72L198.363 20.864C198.331 20.96 198.283 21.008 198.219 21.008C198.155 20.976 198.091 20.96 198.027 20.96C197.419 20.96 196.859 21.312 196.347 22.016C195.835 22.688 195.387 23.52 195.003 24.512C194.619 25.504 194.283 26.464 193.995 27.392C193.739 28.288 193.563 28.96 193.467 29.408C193.787 28.672 194.203 27.84 194.715 26.912C195.259 25.952 195.883 25.04 196.587 24.176C197.291 23.28 198.059 22.544 198.891 21.968C199.723 21.36 200.603 21.056 201.531 21.056C201.659 21.056 201.867 21.088 202.155 21.152C202.475 21.184 202.763 21.264 203.019 21.392C203.307 21.488 203.451 21.616 203.451 21.776L203.403 21.824H203.355L203.067 21.728C203.163 21.952 203.227 22.176 203.259 22.4C203.291 22.624 203.307 22.848 203.307 23.072C203.307 23.264 203.243 23.68 203.115 24.32C203.019 24.96 202.875 25.568 202.683 26.144C202.523 26.688 202.347 26.96 202.155 26.96C202.027 26.96 201.963 26.912 201.963 26.816C201.963 26.656 202.011 26.4 202.107 26.048C202.235 25.664 202.299 25.312 202.299 24.992C202.299 24.416 202.155 23.952 201.867 23.6C201.579 23.248 201.147 23.072 200.571 23.072C199.611 23.072 198.683 23.488 197.787 24.32C196.891 25.12 196.075 26.128 195.339 27.344C194.603 28.528 193.979 29.728 193.467 30.944C192.955 32.16 192.603 33.152 192.411 33.92C192.283 34.336 192.171 34.88 192.075 35.552C191.979 36.192 191.739 36.64 191.355 36.896C191.259 36.928 190.955 37.088 190.443 37.376C189.963 37.664 189.499 37.936 189.051 38.192C188.571 38.48 188.331 38.624 188.331 38.624Z" fill="white"/>
  <path mask="url(#name-mask-i)" id="name-char-i" d="M210.847 17.36C210.591 17.36 210.191 17.264 209.647 17.072C209.135 16.848 208.879 16.576 208.879 16.256C208.879 16.224 208.879 16.208 208.879 16.208C208.911 16.176 208.927 16.144 208.927 16.112C209.087 15.792 209.439 15.6 209.983 15.536C210.559 15.472 210.991 15.376 211.279 15.248C211.919 14.992 212.543 14.784 213.151 14.624C213.759 14.464 214.335 14.176 214.879 13.76C215.007 13.824 215.071 13.888 215.071 13.952C215.071 14.08 214.927 14.256 214.639 14.48C214.383 14.704 214.207 14.896 214.111 15.056C213.983 15.248 213.695 15.536 213.247 15.92C212.831 16.272 212.383 16.608 211.903 16.928C211.423 17.216 211.071 17.36 210.847 17.36ZM202.735 38.144C202.223 38.144 201.871 38.016 201.679 37.76C201.487 37.504 201.391 37.136 201.391 36.656C201.391 35.6 201.599 34.32 202.015 32.816C202.463 31.312 202.959 29.792 203.503 28.256C204.047 26.688 204.479 25.296 204.799 24.08C204.927 23.632 205.231 23.328 205.711 23.168C206.223 22.976 206.655 22.752 207.007 22.496C207.519 22.144 208.063 21.856 208.639 21.632C209.215 21.376 209.823 21.248 210.463 21.248C210.623 21.248 210.719 21.28 210.751 21.344C210.815 21.408 210.847 21.456 210.847 21.488C210.847 21.68 210.735 21.776 210.511 21.776C210.063 21.776 209.599 22.048 209.119 22.592C208.639 23.104 208.159 23.776 207.679 24.608C207.199 25.44 206.767 26.304 206.383 27.2C205.999 28.096 205.663 28.928 205.375 29.696C205.087 30.432 204.895 30.976 204.799 31.328C204.639 31.84 204.479 32.448 204.319 33.152C204.159 33.824 204.079 34.448 204.079 35.024C204.079 35.248 204.111 35.52 204.175 35.84C204.239 36.128 204.431 36.272 204.751 36.272C204.975 36.272 205.215 36.192 205.471 36.032C206.175 35.616 206.863 35.056 207.535 34.352C208.239 33.616 208.879 32.832 209.455 32C210.063 31.136 210.543 30.352 210.895 29.648C210.959 29.68 210.991 29.744 210.991 29.84C210.991 30.032 210.879 30.32 210.655 30.704C210.431 31.056 210.175 31.44 209.887 31.856C209.599 32.272 209.327 32.64 209.071 32.96C208.847 33.28 208.735 33.472 208.735 33.536C208.703 33.792 208.655 33.984 208.591 34.112C208.527 34.208 208.431 34.384 208.303 34.64C207.919 35.024 207.407 35.504 206.767 36.08C206.127 36.624 205.455 37.104 204.751 37.52C204.047 37.936 203.375 38.144 202.735 38.144Z" fill="white"/>
  <path mask="url(#name-mask-a-2)" id="name-char-a" d="M210.048 38.096C209.536 38.096 209.2 37.904 209.04 37.52C208.912 37.104 208.848 36.688 208.848 36.272C208.848 34.768 209.136 33.152 209.712 31.424C210.288 29.696 211.04 28.048 211.968 26.48C212.896 24.88 213.904 23.568 214.992 22.544C216.144 21.488 217.504 20.96 219.072 20.96C219.712 20.96 220.336 21.04 220.944 21.2C221.584 21.328 222.208 21.52 222.816 21.776C223.36 21.392 223.952 21.056 224.592 20.768C225.232 20.48 225.888 20.336 226.56 20.336C226.72 20.336 226.848 20.432 226.944 20.624V20.768C226.944 20.864 226.896 20.912 226.8 20.912C226.736 20.88 226.672 20.864 226.608 20.864C226.096 20.864 225.536 21.264 224.928 22.064C224.32 22.832 223.712 23.824 223.104 25.04C222.496 26.256 221.936 27.536 221.424 28.88C220.944 30.224 220.544 31.456 220.224 32.576C219.936 33.696 219.792 34.544 219.792 35.12C219.792 35.344 219.824 35.6 219.888 35.888C219.984 36.176 220.176 36.32 220.464 36.32C220.624 36.32 220.752 36.288 220.848 36.224C220.976 36.16 221.104 36.096 221.232 36.032C221.936 35.616 222.624 35.056 223.296 34.352C224 33.616 224.64 32.832 225.216 32C225.824 31.136 226.32 30.352 226.704 29.648C226.736 29.68 226.752 29.744 226.752 29.84C226.752 30.032 226.64 30.32 226.416 30.704C226.192 31.056 225.936 31.44 225.648 31.856C225.36 32.272 225.088 32.64 224.832 32.96C224.608 33.28 224.496 33.472 224.496 33.536C224.464 33.76 224.416 33.952 224.352 34.112C224.288 34.24 224.192 34.416 224.064 34.64C223.648 35.056 223.12 35.536 222.48 36.08C221.84 36.624 221.168 37.104 220.464 37.52C219.792 37.904 219.136 38.096 218.496 38.096C217.504 38.096 217.008 37.568 217.008 36.512C217.008 35.872 217.136 35.136 217.392 34.304C217.68 33.44 218 32.592 218.352 31.76C218.736 30.896 219.072 30.176 219.36 29.6C219.36 29.568 219.36 29.52 219.36 29.456C219.36 29.392 219.344 29.36 219.312 29.36C219.28 29.36 219.232 29.392 219.168 29.456C218.784 29.968 218.224 30.704 217.488 31.664C216.752 32.624 215.936 33.6 215.04 34.592C214.176 35.552 213.296 36.384 212.4 37.088C211.504 37.76 210.72 38.096 210.048 38.096ZM212.16 36.032C212.512 36.032 212.944 35.808 213.456 35.36C214 34.88 214.56 34.32 215.136 33.68C215.744 33.008 216.272 32.368 216.72 31.76C217.2 31.152 217.536 30.704 217.728 30.416C218.112 29.84 218.544 29.12 219.024 28.256C219.536 27.392 219.968 26.496 220.32 25.568C220.704 24.64 220.896 23.856 220.896 23.216C220.896 22.224 220.4 21.728 219.408 21.728C218.832 21.728 218.224 21.984 217.584 22.496C216.944 23.008 216.432 23.472 216.048 23.888C215.632 24.4 215.152 25.136 214.608 26.096C214.096 27.056 213.616 28.096 213.168 29.216C212.72 30.336 212.336 31.408 212.016 32.432C211.728 33.456 211.584 34.304 211.584 34.976C211.584 35.168 211.616 35.392 211.68 35.648C211.744 35.904 211.904 36.032 212.16 36.032Z" fill="white"/>
  <path mask="url(#name-mask-n-2)" id="name-char-n" d="M223.299 38.624C223.267 38.624 223.251 38.608 223.251 38.576C223.251 38.448 223.315 38.32 223.443 38.192C223.539 38.064 223.603 37.968 223.635 37.904C223.859 37.552 224.131 36.96 224.451 36.128C224.739 35.264 225.027 34.304 225.315 33.248C225.635 32.16 225.923 31.072 226.179 29.984C226.467 28.864 226.723 27.84 226.947 26.912C227.171 25.984 227.331 25.28 227.427 24.8C227.491 24.544 227.555 24.208 227.619 23.792C227.683 23.376 227.779 22.96 227.907 22.544C228.035 22.128 228.179 21.856 228.339 21.728C228.659 21.472 229.091 21.248 229.635 21.056C230.211 20.864 230.803 20.72 231.411 20.624C232.019 20.496 232.515 20.432 232.899 20.432C232.963 20.432 233.043 20.464 233.139 20.528C233.235 20.592 233.299 20.656 233.331 20.72V20.864C233.331 20.96 233.299 21.008 233.235 21.008C233.171 20.976 233.107 20.96 233.043 20.96C232.339 20.96 231.715 21.36 231.171 22.16C230.627 22.928 230.163 23.888 229.779 25.04C229.395 26.16 229.075 27.248 228.819 28.304C228.563 29.36 228.371 30.16 228.243 30.704C229.267 28.944 230.435 27.264 231.747 25.664C233.091 24.032 234.659 22.72 236.451 21.728C236.675 21.6 236.931 21.472 237.219 21.344C237.507 21.184 237.763 21.104 237.987 21.104C238.403 21.104 238.659 21.296 238.755 21.68C238.851 22.032 238.899 22.368 238.899 22.688C238.899 23.104 238.755 23.712 238.467 24.512C238.179 25.312 237.843 26.112 237.459 26.912C237.107 27.68 236.835 28.288 236.643 28.736C236.451 29.248 236.227 29.904 235.971 30.704C235.715 31.504 235.491 32.304 235.299 33.104C235.107 33.904 235.011 34.576 235.011 35.12C235.011 35.344 235.043 35.6 235.107 35.888C235.171 36.176 235.347 36.32 235.635 36.32C235.795 36.32 235.923 36.288 236.019 36.224C236.147 36.16 236.275 36.096 236.403 36.032C237.139 35.616 237.843 35.056 238.515 34.352C239.219 33.616 239.859 32.832 240.435 32C241.011 31.136 241.491 30.352 241.875 29.648C241.907 29.68 241.923 29.744 241.923 29.84C241.923 30.032 241.811 30.32 241.587 30.704C241.363 31.056 241.107 31.44 240.819 31.856C240.531 32.272 240.259 32.64 240.003 32.96C239.779 33.28 239.667 33.472 239.667 33.536C239.635 33.76 239.587 33.952 239.523 34.112C239.459 34.24 239.379 34.416 239.283 34.64C238.899 35.024 238.339 35.504 237.603 36.08C236.899 36.624 236.163 37.12 235.395 37.568C234.659 37.984 234.003 38.192 233.427 38.192C232.915 38.192 232.563 38 232.371 37.616C232.211 37.2 232.131 36.768 232.131 36.32C232.131 35.456 232.307 34.432 232.659 33.248C233.011 32.032 233.427 30.832 233.907 29.648C234.387 28.432 234.787 27.408 235.107 26.576C235.203 26.32 235.347 25.92 235.539 25.376C235.763 24.832 235.875 24.448 235.875 24.224C235.875 24.064 235.843 23.888 235.779 23.696C235.747 23.504 235.603 23.408 235.347 23.408C235.027 23.408 234.611 23.616 234.099 24.032C233.619 24.448 233.251 24.784 232.995 25.04C231.619 26.576 230.435 28.288 229.443 30.176C228.451 32.032 227.619 33.952 226.947 35.936C226.851 36.192 226.787 36.384 226.755 36.512C226.755 36.608 226.627 36.736 226.371 36.896C226.275 36.96 225.971 37.136 225.459 37.424C224.979 37.712 224.515 37.984 224.067 38.24C223.587 38.496 223.331 38.624 223.299 38.624Z" fill="white"/>
  <path mask="url(#name-mask-s)" id="name-char-s" d="M241.13 38.384C240.522 38.384 239.85 38.272 239.114 38.048C238.378 37.824 237.834 37.408 237.482 36.8V36.704C237.482 36.544 237.69 36.304 238.106 35.984C238.49 35.632 238.906 35.296 239.354 34.976C239.802 34.624 240.09 34.368 240.218 34.208L240.554 34.112L240.65 34.304C240.426 34.496 240.314 34.704 240.314 34.928C240.314 35.408 240.49 35.808 240.842 36.128C241.226 36.448 241.658 36.688 242.138 36.848C242.65 37.008 243.098 37.088 243.482 37.088C243.93 37.088 244.49 36.96 245.162 36.704C245.866 36.448 246.49 36.096 247.034 35.648C247.578 35.2 247.85 34.704 247.85 34.16C247.85 33.328 247.594 32.608 247.082 32C246.57 31.392 245.978 30.816 245.306 30.272C244.634 29.728 244.042 29.152 243.53 28.544C243.018 27.936 242.762 27.232 242.762 26.432C242.762 25.504 243.034 24.672 243.578 23.936C244.154 23.168 244.874 22.528 245.738 22.016C246.634 21.472 247.562 21.072 248.522 20.816C249.482 20.528 250.362 20.384 251.162 20.384C251.29 20.384 251.578 20.416 252.026 20.48C252.474 20.512 252.89 20.592 253.274 20.72C253.69 20.816 253.898 20.96 253.898 21.152C253.898 21.216 253.882 21.248 253.85 21.248H253.754L253.37 21.152C253.466 21.376 253.514 21.648 253.514 21.968C253.514 22.256 253.45 22.624 253.322 23.072C253.194 23.52 253.05 23.872 252.89 24.128C252.858 24.192 252.698 24.4 252.41 24.752C252.122 25.104 251.834 25.44 251.546 25.76C251.258 26.08 251.082 26.24 251.018 26.24L250.97 26.144C251.034 25.984 251.242 25.712 251.594 25.328C251.946 24.912 252.122 24.384 252.122 23.744C252.122 23.072 251.818 22.528 251.21 22.112C250.602 21.664 249.978 21.44 249.338 21.44C248.73 21.44 248.09 21.632 247.418 22.016C246.778 22.4 246.234 22.896 245.786 23.504C245.37 24.112 245.162 24.736 245.162 25.376C245.162 25.952 245.434 26.56 245.978 27.2C246.554 27.808 247.194 28.432 247.898 29.072C248.634 29.68 249.274 30.288 249.818 30.896C250.394 31.504 250.682 32.08 250.682 32.624V32.768C250.682 33.568 250.33 34.32 249.626 35.024C248.922 35.696 248.042 36.288 246.986 36.8C245.93 37.312 244.858 37.712 243.77 38C242.714 38.256 241.834 38.384 241.13 38.384Z" fill="white"/>
  <path mask="url(#name-mask-k)" id="name-char-k" d="M250.904 38.624C250.872 38.624 250.856 38.608 250.856 38.576C250.856 38.448 250.92 38.32 251.048 38.192C251.144 38.096 251.208 38 251.24 37.904C251.496 37.488 251.768 36.944 252.056 36.272C252.344 35.568 252.616 34.848 252.872 34.112C253.128 33.376 253.336 32.784 253.496 32.336C254.168 30.448 254.824 28.544 255.464 26.624C256.104 24.672 256.776 22.752 257.48 20.864C257.896 19.744 258.376 18.48 258.92 17.072C259.496 15.664 260.152 14.24 260.888 12.8C261.656 11.36 262.52 10.048 263.48 8.86398C264.44 7.64798 265.512 6.67198 266.696 5.93598C267.88 5.19998 269.208 4.83198 270.68 4.83198C271.032 4.83198 271.416 4.89598 271.832 5.02398C272.28 5.15198 272.6 5.37598 272.792 5.69598C272.92 5.82398 272.984 5.96798 272.984 6.12798C272.984 6.25598 272.936 6.31998 272.84 6.31998C272.616 6.22398 272.408 6.04798 272.216 5.79198C272.024 5.53598 271.736 5.40798 271.352 5.40798C270.712 5.40798 270.008 5.66398 269.24 6.17598C268.472 6.65598 267.752 7.23198 267.08 7.90398C266.44 8.57598 265.928 9.16798 265.544 9.67998C264.456 11.152 263.416 12.864 262.424 14.816C261.464 16.768 260.568 18.768 259.736 20.816C258.936 22.864 258.216 24.768 257.576 26.528C257.896 26.08 258.328 25.568 258.872 24.992C259.448 24.384 260.072 23.792 260.744 23.216C261.416 22.64 262.088 22.16 262.76 21.776C263.464 21.392 264.088 21.2 264.632 21.2C265.24 21.2 265.736 21.392 266.12 21.776C266.504 22.16 266.696 22.656 266.696 23.264C266.696 24.256 266.392 25.104 265.784 25.808C265.176 26.48 264.392 27.024 263.432 27.44C262.504 27.856 261.528 28.16 260.504 28.352C259.512 28.544 258.632 28.656 257.864 28.688C258.088 29.392 258.424 30.24 258.872 31.232C259.32 32.192 259.864 33.152 260.504 34.112C261.176 35.04 261.896 35.824 262.664 36.464C263.432 37.072 264.232 37.376 265.064 37.376C266.056 37.376 266.808 37.072 267.32 36.464C267.864 35.856 268.392 35.2 268.904 34.496C268.936 34.496 268.952 34.544 268.952 34.64C268.952 34.768 268.92 34.896 268.856 35.024C268.792 35.152 268.728 35.264 268.664 35.36C268.536 35.584 268.408 35.824 268.28 36.08C268.184 36.304 268.056 36.528 267.896 36.752C267.48 37.296 266.952 37.696 266.312 37.952C265.704 38.208 265.064 38.336 264.392 38.336C262.952 38.336 261.688 37.952 260.6 37.184C259.544 36.384 258.648 35.376 257.912 34.16C257.208 32.944 256.632 31.728 256.184 30.512C255.96 31.216 255.736 31.936 255.512 32.672C255.288 33.376 255.064 34.096 254.84 34.832C254.808 34.96 254.76 35.104 254.696 35.264C254.664 35.424 254.632 35.584 254.6 35.744C254.568 35.808 254.552 35.872 254.552 35.936C254.52 36.192 254.472 36.384 254.408 36.512C254.376 36.608 254.232 36.736 253.976 36.896C253.912 36.928 253.624 37.088 253.112 37.376C252.6 37.664 252.12 37.936 251.672 38.192C251.192 38.48 250.936 38.624 250.904 38.624ZM258.728 27.824C259.592 27.824 260.424 27.664 261.224 27.344C262.024 26.992 262.68 26.496 263.192 25.856C263.704 25.184 263.96 24.384 263.96 23.456C263.96 23.296 263.928 23.12 263.864 22.928C263.832 22.704 263.688 22.592 263.432 22.592C262.664 22.592 261.896 22.912 261.128 23.552C260.392 24.192 259.688 24.912 259.016 25.712C258.344 26.512 257.768 27.168 257.288 27.68C257.736 27.776 258.216 27.824 258.728 27.824Z" fill="white"/>
  <path mask="url(#name-mask-i-2)" id="name-char-i" d="M276.659 17.36C276.403 17.36 276.003 17.264 275.459 17.072C274.947 16.848 274.691 16.576 274.691 16.256C274.691 16.224 274.691 16.208 274.691 16.208C274.723 16.176 274.739 16.144 274.739 16.112C274.899 15.792 275.251 15.6 275.795 15.536C276.371 15.472 276.803 15.376 277.091 15.248C277.731 14.992 278.355 14.784 278.963 14.624C279.571 14.464 280.147 14.176 280.691 13.76C280.819 13.824 280.883 13.888 280.883 13.952C280.883 14.08 280.739 14.256 280.451 14.48C280.195 14.704 280.019 14.896 279.923 15.056C279.795 15.248 279.507 15.536 279.059 15.92C278.643 16.272 278.195 16.608 277.715 16.928C277.235 17.216 276.883 17.36 276.659 17.36ZM268.547 38.144C268.035 38.144 267.683 38.016 267.491 37.76C267.299 37.504 267.203 37.136 267.203 36.656C267.203 35.6 267.411 34.32 267.827 32.816C268.275 31.312 268.771 29.792 269.315 28.256C269.859 26.688 270.291 25.296 270.611 24.08C270.739 23.632 271.043 23.328 271.523 23.168C272.035 22.976 272.467 22.752 272.819 22.496C273.331 22.144 273.875 21.856 274.451 21.632C275.027 21.376 275.635 21.248 276.275 21.248C276.435 21.248 276.531 21.28 276.563 21.344C276.627 21.408 276.659 21.456 276.659 21.488C276.659 21.68 276.547 21.776 276.323 21.776C275.875 21.776 275.411 22.048 274.931 22.592C274.451 23.104 273.971 23.776 273.491 24.608C273.011 25.44 272.579 26.304 272.195 27.2C271.811 28.096 271.475 28.928 271.187 29.696C270.899 30.432 270.707 30.976 270.611 31.328C270.451 31.84 270.291 32.448 270.131 33.152C269.971 33.824 269.891 34.448 269.891 35.024C269.891 35.248 269.923 35.52 269.987 35.84C270.051 36.128 270.243 36.272 270.563 36.272C270.787 36.272 271.027 36.192 271.283 36.032C271.987 35.616 272.675 35.056 273.347 34.352C274.051 33.616 274.691 32.832 275.267 32C275.875 31.136 276.355 30.352 276.707 29.648C276.771 29.68 276.803 29.744 276.803 29.84C276.803 30.032 276.691 30.32 276.467 30.704C276.243 31.056 275.987 31.44 275.699 31.856C275.411 32.272 275.139 32.64 274.883 32.96C274.659 33.28 274.547 33.472 274.547 33.536C274.515 33.792 274.467 33.984 274.403 34.112C274.339 34.208 274.243 34.384 274.115 34.64C273.731 35.024 273.219 35.504 272.579 36.08C271.939 36.624 271.267 37.104 270.563 37.52C269.859 37.936 269.187 38.144 268.547 38.144Z" fill="white"/>
    </g>
  </svg>